<svg width="20" height="20" viewBox="0 0 20 20" fill="none" xmlns="http://www.w3.org/2000/svg">
<path d="M9.98828 0C15.518 7.09411e-05 20 4.47737 20 10C20 15.5227 15.5171 20 9.9873 20C5.46927 19.9998 1.64994 17.0108 0.404297 12.9043L4.15723 14.4102L4.34863 16.0312L6.94531 17.0986L9.7168 16.1396L9.87891 13.6279L12.8838 11.1416L14.8711 11.3037L16.9404 9.39746L17.2646 6.74609L15.8037 3.84961L12.2959 3.2207L9.29395 5.08496L9.46875 7.52832L7.58594 10.8047L6.70996 10.584L5.02246 11.4238L0 9.30469C0.357237 4.10616 4.69284 0 9.98828 0ZM9.15137 12.3779L8.84766 15.4219L7.00293 16.207L5.2168 15.6191L5.02734 14.7598L6.67578 15.4219L8.06348 14.8135L8.33984 12.8232L6.11328 11.8838L7.08887 11.4238L9.15137 12.3779ZM15.4004 5.30566L16.2725 6.94727L15.8467 9.23438L13.5137 10.3701L10.8281 9.08105L10.7988 5.9502L12.9863 4.57715L15.4004 5.30566ZM11.6943 6.66113L11.8721 8.60156L13.4961 9.23438L14.8145 8.60742L15.124 7.2168L14.4961 6.10742L13.0254 5.71582L11.6943 6.66113Z" fill="url(#paint0_radial_1_452)"/>
<defs>
<radialGradient id="paint0_radial_1_452" cx="0" cy="0" r="1" gradientUnits="userSpaceOnUse" gradientTransform="translate(10 10) rotate(90) scale(10)">
<stop stop-color="#EFFB63"/>
<stop offset="1" stop-color="#A1EB50"/>
</radialGradient>
</defs>
</svg>
