<svg width="89" height="55" viewBox="0 0 89 55" fill="none" xmlns="http://www.w3.org/2000/svg">
<g filter="url(#filter0_d_1_495)">
<path d="M19.6888 39.5125C16.7964 39.1755 14.2545 38.0417 12.0632 36.1112C9.90736 34.1526 8.31455 31.6474 7.28476 28.5958C6.25868 25.5123 5.95301 22.1906 6.36774 18.6307C6.77878 15.1026 7.81656 12.0018 9.4811 9.32848C11.1774 6.65884 13.3101 4.66826 15.8791 3.35673C18.4518 2.01342 21.2003 1.5121 24.1245 1.85277C27.0488 2.19345 29.5326 3.27213 31.5761 5.0888C33.6514 6.90918 35.1441 9.30601 36.0542 12.2793C36.9679 15.2208 37.2119 18.5192 36.786 22.1745C36.3565 25.8615 35.3375 29.0772 33.7291 31.8215C32.1208 34.5659 30.0938 36.6171 27.6482 37.9752C25.2026 39.3333 22.5495 39.8457 19.6888 39.5125ZM20.5988 30.8717C21.8067 31.0124 22.9551 30.6952 24.0441 29.92C25.1686 29.1168 26.1077 27.9697 26.8612 26.4789C27.6148 24.9881 28.1008 23.305 28.3193 21.4297C28.5489 19.459 28.4842 17.6635 28.1253 16.0431C27.7664 14.4227 27.1443 13.126 26.259 12.153C25.4054 11.1837 24.3588 10.6268 23.1192 10.4824C21.816 10.3306 20.5722 10.6367 19.3878 11.4008C18.2072 12.1331 17.2101 13.225 16.3967 14.6767C15.5869 16.0965 15.0765 17.7123 14.8655 19.524C14.6433 21.4311 14.7397 23.2304 15.1548 24.9218C15.6016 26.6169 16.294 28.0023 17.2318 29.0781C18.2051 30.1257 19.3274 30.7236 20.5988 30.8717ZM50.6 22.4307C48.9154 22.2345 47.4342 21.6753 46.1563 20.7532C44.9139 19.8031 43.9872 18.632 43.3762 17.2399C42.7689 15.8161 42.5559 14.3254 42.7374 12.768C42.9188 11.2105 43.495 9.86008 44.4658 8.71674C45.4403 7.54162 46.6835 6.68774 48.1953 6.1551C49.7108 5.59068 51.3108 5.4066 52.9954 5.60286C54.5847 5.78801 55.992 6.29024 57.2174 7.10955C58.4746 7.93256 59.3984 8.99056 59.9888 10.2836C60.6109 11.5803 60.8312 13.0074 60.6498 14.5648C60.4646 16.1541 59.911 17.5876 58.989 18.8655C58.0706 20.1116 56.864 21.0664 55.3692 21.7299C53.9061 22.3971 52.3164 22.6307 50.6 22.4307ZM57.163 43.25L49.6341 38.6036L67.5824 7.73718L74.8572 8.34308L57.163 43.25ZM51.5559 17.1297C52.3505 17.2223 53.0691 16.9999 53.7116 16.4627C54.354 15.9254 54.7234 15.2436 54.8197 14.4172C54.9197 13.559 54.687 12.7909 54.1217 12.1129C53.5918 11.4069 52.8978 11.0038 52.0396 10.9039C51.1496 10.8002 50.3516 11.0133 49.6455 11.5431C48.975 12.0449 48.5915 12.709 48.4953 13.5354C48.399 14.3618 48.6616 15.1495 49.2831 15.8984C49.9083 16.6156 50.6659 17.026 51.5559 17.1297ZM71.6736 44.7956C70.0526 44.6067 68.6012 44.0671 67.3197 43.1769C66.0699 42.2903 65.1217 41.165 64.4752 39.801C63.8324 38.4053 63.6036 36.9128 63.7887 35.3235C63.9627 33.8296 64.4772 32.4559 65.332 31.2024C66.1868 29.9489 67.3298 28.9867 68.761 28.3158C70.196 27.6131 71.8193 27.3673 73.6311 27.5784C75.411 27.7858 76.9204 28.3804 78.1591 29.3624C79.4295 30.348 80.3348 31.5649 80.8748 33.0132C81.4504 34.4333 81.6493 35.9062 81.4715 37.4319C81.2827 39.0529 80.701 40.451 79.7264 41.6261C78.7837 42.805 77.6023 43.6821 76.1821 44.2577C74.7657 44.8014 73.2628 44.9807 71.6736 44.7956ZM72.0684 39.3326C73.0537 39.4473 73.9153 39.2417 74.6532 38.7155C75.391 38.1894 75.8155 37.4495 75.9266 36.496C76.0303 35.606 75.7994 34.822 75.2341 34.144C74.7042 33.438 73.9625 33.0294 73.009 32.9183C72.0554 32.8072 71.2397 33.0343 70.5617 33.5997C69.8874 34.1332 69.491 34.9086 69.3725 35.9257C69.2689 36.8157 69.4539 37.5782 69.9275 38.2133C70.433 38.8521 71.1466 39.2252 72.0684 39.3326Z" fill="url(#paint0_radial_1_495)"/>
</g>
<defs>
<filter id="filter0_d_1_495" x="0.145935" y="0.0364685" width="88.6472" height="54.5495" filterUnits="userSpaceOnUse" color-interpolation-filters="sRGB">
<feFlood flood-opacity="0" result="BackgroundImageFix"/>
<feColorMatrix in="SourceAlpha" type="matrix" values="0 0 0 0 0 0 0 0 0 0 0 0 0 0 0 0 0 0 127 0" result="hardAlpha"/>
<feOffset dy="4"/>
<feGaussianBlur stdDeviation="2"/>
<feComposite in2="hardAlpha" operator="out"/>
<feColorMatrix type="matrix" values="0 0 0 0 0 0 0 0 0 0 0 0 0 0 0 0 0 0 0.25 0"/>
<feBlend mode="normal" in2="BackgroundImageFix" result="effect1_dropShadow_1_495"/>
<feBlend mode="normal" in="SourceGraphic" in2="effect1_dropShadow_1_495" result="shape"/>
</filter>
<radialGradient id="paint0_radial_1_495" cx="0" cy="0" r="1" gradientUnits="userSpaceOnUse" gradientTransform="translate(44.5085 24.4675) rotate(96.6451) scale(24 40)">
<stop stop-color="#EFFB63"/>
<stop offset="1" stop-color="#A1EB50"/>
</radialGradient>
</defs>
</svg>
