<svg width="53" height="61" viewBox="0 0 53 61" fill="none" xmlns="http://www.w3.org/2000/svg">
<g clip-path="url(#clip0_1_519)" filter="url(#filter0_d_1_519)">
<path d="M47.6869 5.48125C40.9206 7.52548 33.6145 6.62121 27.5174 2.98586L25.6091 1.84768L23.9217 3.29331C18.5303 7.91097 11.4837 10.0419 4.46867 9.17658L5.48821 21.1005C7.86342 48.8794 29.9763 52.9237 29.9763 52.9237C29.9763 52.9237 51.0816 45.1841 48.7064 17.4051L47.6869 5.48125ZM26.2279 34.3786L15.9551 28.0748L19.6839 22.0102L25.7097 28.3182L35.7163 16.3301L40.8894 21.6335L26.2284 34.3786L26.2279 34.3786Z" fill="url(#paint0_radial_1_519)"/>
</g>
<defs>
<filter id="filter0_d_1_519" x="0" y="0" width="55.5854" height="62.7714" filterUnits="userSpaceOnUse" color-interpolation-filters="sRGB">
<feFlood flood-opacity="0" result="BackgroundImageFix"/>
<feColorMatrix in="SourceAlpha" type="matrix" values="0 0 0 0 0 0 0 0 0 0 0 0 0 0 0 0 0 0 127 0" result="hardAlpha"/>
<feOffset dy="4"/>
<feGaussianBlur stdDeviation="2"/>
<feComposite in2="hardAlpha" operator="out"/>
<feColorMatrix type="matrix" values="0 0 0 0 0 0 0 0 0 0 0 0 0 0 0 0 0 0 0.25 0"/>
<feBlend mode="normal" in2="BackgroundImageFix" result="effect1_dropShadow_1_519"/>
<feBlend mode="normal" in="SourceGraphic" in2="effect1_dropShadow_1_519" result="shape"/>
</filter>
<radialGradient id="paint0_radial_1_519" cx="0" cy="0" r="1" gradientUnits="userSpaceOnUse" gradientTransform="translate(27.7927 27.3857) rotate(85.1129) scale(25.6312 21.6879)">
<stop stop-color="#EFFB63"/>
<stop offset="1" stop-color="#A1EB50"/>
</radialGradient>
<clipPath id="clip0_1_519">
<rect width="43.3759" height="51.2624" fill="white" transform="translate(4 3.69534) rotate(-4.88714)"/>
</clipPath>
</defs>
</svg>
